<svg width="1920" height="1080" viewBox="0 0 1920 1080" fill="none" xmlns="http://www.w3.org/2000/svg">
<g clip-path="url(#clip0_67_1692)">
<rect width="1920" height="1080" fill="white"/>
<g clip-path="url(#clip1_67_1692)">
<path d="M14.5 918.423C9.54009 918.423 4.69159 919.894 0.567603 922.649C-3.55638 925.405 -6.77065 929.321 -8.66871 933.904C-10.5668 938.486 -11.0634 943.528 -10.0958 948.393C-9.12814 953.257 -6.73973 957.726 -3.23257 961.233C0.274594 964.74 4.74298 967.128 9.60755 968.096C14.4721 969.064 19.5144 968.567 24.0967 966.669C28.6791 964.771 32.5956 961.557 35.3512 957.433C38.1068 953.309 39.5775 948.46 39.5775 943.5C39.5697 936.852 36.9251 930.478 32.2239 925.776C27.5226 921.075 21.1486 918.431 14.5 918.423ZM14.5 963.423C10.5686 963.415 6.7276 962.243 3.46233 960.053C0.197055 957.864 -2.34597 954.756 -3.8454 951.122C-5.34483 947.487 -5.73337 943.49 -4.96194 939.635C-4.19051 935.78 -2.29371 932.241 0.488757 929.463C3.27123 926.686 6.81451 924.796 10.6709 924.031C14.5272 923.267 18.5236 923.663 22.155 925.169C25.7865 926.675 28.8899 929.224 31.0733 932.493C33.2568 935.763 34.4221 939.606 34.4221 943.537C34.4084 948.813 32.304 953.869 28.5697 957.596C24.8355 961.324 19.7761 963.419 14.5 963.423Z" fill="#ECF7FC"/>
<path d="M14.5001 878.04C1.55339 878.04 -11.1025 881.879 -21.8673 889.072C-32.632 896.265 -41.0222 906.488 -45.9766 918.449C-50.9311 930.41 -52.2274 943.572 -49.7017 956.27C-47.1759 968.968 -40.9415 980.632 -31.7868 989.786C-22.6321 998.941 -10.9684 1005.18 1.72953 1007.7C14.4274 1010.23 27.5891 1008.93 39.5503 1003.98C51.5115 999.022 61.7348 990.632 68.9276 979.867C76.1204 969.102 79.9595 956.446 79.9595 943.5C79.9361 926.146 73.032 909.509 60.7611 897.238C48.4901 884.968 31.8538 878.063 14.5001 878.04ZM14.5001 1004.13C2.50895 1004.13 -9.21288 1000.57 -19.1831 993.91C-29.1534 987.248 -36.9242 977.779 -41.513 966.701C-46.1018 955.623 -47.3024 943.432 -44.9631 931.672C-42.6237 919.911 -36.8495 909.108 -28.3705 900.629C-19.8915 892.15 -9.08861 886.376 2.67209 884.036C14.4328 881.697 26.6231 882.898 37.7014 887.486C48.7798 892.075 58.2486 899.846 64.9105 909.816C71.5724 919.787 75.1281 931.508 75.1281 943.5C75.1086 959.573 68.7148 974.983 57.349 986.348C45.9833 997.714 30.5736 1004.11 14.5001 1004.13Z" fill="#ECF7FC"/>
<path d="M14.5001 797.284C-66.109 797.284 -131.716 862.891 -131.716 943.5C-131.716 1024.11 -66.109 1089.73 14.5001 1089.73C95.1093 1089.73 160.731 1024.12 160.731 943.5C160.731 862.876 95.124 797.284 14.5001 797.284ZM14.5001 1085.55C-63.8259 1085.55 -127.547 1021.83 -127.547 943.5C-127.547 865.174 -63.8259 801.453 14.5001 801.453C92.8262 801.453 156.548 865.174 156.548 943.5C156.548 1021.83 92.8262 1085.55 14.5001 1085.55Z" fill="#ECF7FC"/>
<path d="M14.5002 756.902C-0.30542 756.884 -15.0613 758.615 -29.4611 762.057C-30.0095 760.353 -31.1487 758.902 -32.6733 757.964C-34.1979 757.026 -36.0074 756.664 -37.7754 756.943C-39.5434 757.222 -41.1534 758.124 -42.315 759.486C-43.4765 760.848 -44.1131 762.58 -44.11 764.37C-44.1081 764.966 -44.0339 765.559 -43.889 766.137C-88.6159 780.768 -126.188 811.714 -149.117 852.809C-172.046 893.904 -178.648 942.13 -167.608 987.876C-156.567 1033.62 -128.695 1073.53 -89.5463 1099.64C-50.3973 1125.75 -2.84619 1136.16 43.6303 1128.78C90.1069 1121.4 132.096 1096.77 161.229 1059.82C190.362 1022.86 204.5 976.282 200.826 929.367C197.151 882.452 175.933 838.644 141.401 806.674C106.87 774.704 61.5591 756.919 14.5002 756.865V756.902ZM14.5002 1126.25C-86.2742 1126.25 -168.253 1044.27 -168.253 943.5C-168.253 862.419 -115.174 793.52 -41.9447 769.687C-40.9993 770.648 -39.8124 771.336 -38.509 771.679C-37.2056 772.022 -35.8339 772.007 -34.5382 771.636C-33.2425 771.265 -32.0707 770.552 -31.1461 769.571C-30.2215 768.591 -29.5784 767.379 -29.2843 766.064C-14.9579 762.529 -0.25589 760.744 14.5002 760.746C115.267 760.746 197.254 842.733 197.254 943.5C197.254 1044.27 115.267 1126.25 14.5002 1126.25Z" fill="#ECF7FC"/>
<path d="M14.4999 716.521C-45.6983 716.522 -103.43 740.437 -145.997 783.003C-188.563 825.57 -212.478 883.302 -212.48 943.5C-212.48 945.391 -212.458 947.281 -212.414 949.171C-213.796 949.736 -214.979 950.699 -215.812 951.939C-216.645 953.178 -217.09 954.638 -217.09 956.131C-217.089 957.771 -216.55 959.365 -215.556 960.67C-214.563 961.975 -213.169 962.918 -211.589 963.356C-206.62 1019.9 -180.649 1072.53 -138.796 1110.87C-96.943 1149.21 -42.2448 1170.48 14.5146 1170.48C16.2723 1170.48 18.0301 1170.46 19.7879 1170.41C20.2969 1171.99 21.314 1173.36 22.6806 1174.3C24.0471 1175.23 25.6861 1175.69 27.3416 1175.6C28.9971 1175.51 30.5759 1174.88 31.8315 1173.79C33.0871 1172.71 33.9488 1171.24 34.282 1169.62C92.5474 1164.53 146.598 1137.14 185.165 1093.17C223.731 1049.2 243.836 992.039 241.287 933.607C238.737 875.175 213.731 819.983 171.482 779.538C129.233 739.093 73.002 716.518 14.5146 716.521H14.4999ZM34.1421 1166.09C33.6851 1164.44 32.6782 1163 31.2887 1162C29.8991 1161.01 28.2104 1160.51 26.5026 1160.61C24.7949 1160.7 23.1708 1161.38 21.8999 1162.52C20.629 1163.67 19.7876 1165.21 19.5154 1166.9C17.8435 1166.9 16.1791 1166.96 14.4999 1166.96C-101.984 1166.96 -197.919 1077.37 -208.061 963.474C-206.37 963.121 -204.854 962.196 -203.767 960.854C-202.68 959.512 -202.089 957.836 -202.095 956.109C-202.094 954.24 -202.791 952.438 -204.048 951.056C-205.305 949.673 -207.033 948.81 -208.893 948.634C-208.937 946.925 -208.959 945.202 -208.959 943.478C-208.989 820.285 -108.715 720.011 14.4999 720.011C137.715 720.011 237.959 820.256 237.959 943.471C237.959 1060.1 148.21 1156.11 34.1421 1166.09Z" fill="#ECF7FC"/>
<path d="M257.057 830.928C258.741 829.986 259.997 828.433 260.566 826.59C261.135 824.747 260.973 822.755 260.112 821.029C259.252 819.303 257.76 817.974 255.946 817.318C254.132 816.663 252.135 816.731 250.369 817.509C226.546 773.002 190.615 736.145 146.73 711.195C102.844 686.246 52.7949 674.223 2.36531 676.516C-48.0643 678.809 -96.8159 695.325 -138.256 724.154C-179.696 752.983 -212.134 792.949 -231.82 839.434C-249.018 880.087 -255.88 924.367 -251.794 968.319C-247.708 1012.27 -232.8 1054.53 -208.402 1091.31C-184.003 1128.1 -150.875 1158.27 -111.974 1179.13C-73.0733 1199.99 -29.6116 1210.89 14.5296 1210.86C58.6492 1210.83 102.077 1199.89 140.944 1179.02C179.812 1158.14 212.911 1127.97 237.296 1091.2C261.68 1054.43 276.591 1012.21 280.7 968.278C284.81 924.35 277.991 880.088 260.85 839.434C259.635 836.569 258.36 833.741 257.057 830.928ZM14.5002 1207.67C-131.163 1207.67 -249.665 1089.16 -249.665 943.5C-249.665 797.837 -131.163 679.335 14.5002 679.335C115.4 679.335 203.227 736.17 247.711 819.505C246.785 820.597 246.191 821.931 245.998 823.349C245.806 824.768 246.023 826.212 246.625 827.511C247.226 828.811 248.187 829.911 249.393 830.682C250.6 831.453 252.001 831.863 253.433 831.863C253.588 831.863 253.743 831.863 253.89 831.863C270.252 866.81 278.712 904.934 278.665 943.523C278.665 1089.16 160.164 1207.67 14.5002 1207.67Z" fill="#ECF7FC"/>
<path d="M335.279 808C313.106 755.418 278.341 709.096 234.049 673.114C189.756 637.131 137.295 612.594 81.2856 601.661C25.2764 590.729 -32.5618 593.738 -87.1342 610.423C-141.707 627.109 -191.339 656.958 -231.658 697.342C-288.714 754.462 -324.148 829.634 -331.9 909.995C-339.651 990.357 -319.237 1070.91 -274.151 1137.89C-229.065 1204.86 -162.108 1254.08 -84.7356 1277.14C-7.36316 1300.2 75.6166 1295.65 150.007 1264.28C160.068 1260.02 169.888 1255.32 179.467 1250.18C180.561 1251.64 182.154 1252.66 183.945 1253.04C185.737 1253.41 187.604 1253.12 189.195 1252.21C190.786 1251.31 191.991 1249.85 192.584 1248.12C193.177 1246.39 193.117 1244.5 192.415 1242.81C256.228 1204.76 306.271 1147.39 335.294 1078.99C353.351 1036.1 362.652 990.021 362.652 943.478C362.652 896.935 353.351 850.861 335.294 807.963L335.279 808ZM190.927 1240.56C189.779 1239.31 188.243 1238.49 186.567 1238.22C184.892 1237.96 183.178 1238.27 181.703 1239.11C180.229 1239.95 179.082 1241.26 178.45 1242.84C177.818 1244.41 177.737 1246.15 178.222 1247.77C127.934 1274.96 71.6565 1289.15 14.4926 1289.08C-176.06 1289.08 -331.092 1134.05 -331.092 943.5C-331.092 752.947 -176.053 597.916 14.5 597.916C205.053 597.916 360.085 752.947 360.085 943.5C360.085 1069.65 292.143 1180.22 190.927 1240.56Z" fill="#ECF7FC"/>
<path d="M372.472 792.276C349.123 737.044 313.314 687.961 267.846 648.865C222.379 609.769 168.484 581.719 110.377 566.91C110.377 566.659 110.413 566.409 110.413 566.173C110.416 564.412 109.8 562.707 108.672 561.355C107.544 560.002 105.977 559.09 104.244 558.776C102.512 558.463 100.724 558.769 99.1939 559.64C97.664 560.512 96.4892 561.894 95.875 563.544C69.1234 557.863 41.8482 555.011 14.4999 555.037C-45.1679 555.093 -104.023 568.879 -157.508 595.328C-210.994 621.777 -257.676 660.179 -293.94 707.562C-330.205 754.945 -355.079 810.038 -366.637 868.576C-378.196 927.113 -376.129 987.526 -360.596 1045.14C-362.194 1045.56 -363.606 1046.5 -364.615 1047.81C-365.623 1049.12 -366.17 1050.73 -366.171 1052.38C-366.171 1054.37 -365.38 1056.28 -363.973 1057.69C-362.566 1059.1 -360.657 1059.89 -358.666 1059.89C-357.897 1059.89 -357.132 1059.77 -356.398 1059.54C-352.671 1071.43 -348.363 1083.17 -343.472 1094.76C-318.725 1153.44 -279.928 1205.13 -230.499 1245.28C-181.07 1285.44 -122.525 1312.82 -60.0211 1325.02C2.48254 1337.22 67.0271 1333.86 127.928 1315.24C188.828 1296.62 244.216 1263.31 289.212 1218.25C343.84 1163.56 380.933 1093.83 395.756 1017.97C410.579 942.104 402.46 863.543 372.435 792.313L372.472 792.276ZM14.4999 1329.83C-158.48 1329.83 -305.271 1215.54 -354.321 1058.5C-353.342 1057.81 -352.544 1056.89 -351.993 1055.83C-351.442 1054.76 -351.154 1053.58 -351.154 1052.38C-351.156 1050.46 -351.898 1048.6 -353.228 1047.21C-354.558 1045.82 -356.373 1044.99 -358.298 1044.89C-367.267 1011.84 -371.793 977.746 -371.754 943.5C-371.754 730.499 -198.501 557.247 14.4999 557.247C41.6981 557.234 68.8215 560.095 95.4184 565.783C95.4184 565.915 95.4184 566.048 95.4184 566.18C95.4274 567.905 96.0293 569.574 97.1231 570.907C98.2169 572.24 99.736 573.156 101.425 573.501C103.115 573.847 104.872 573.6 106.401 572.804C107.93 572.007 109.139 570.709 109.824 569.126C276.868 611.659 400.827 763.376 400.827 943.5C400.827 1156.5 227.501 1329.83 14.4999 1329.83Z" fill="#ECF7FC"/>
<path d="M90.6461 866.5C90.6475 865.186 90.3036 863.895 89.6489 862.756C88.9941 861.616 88.0515 860.669 86.9155 860.009C85.7795 859.349 84.49 858.999 83.1761 858.994C81.8622 858.989 80.5701 859.33 79.4293 859.982C60.8865 845.499 38.0282 837.643 14.5001 837.666C-43.8596 837.666 -91.3413 885.14 -91.3413 943.5C-91.3413 1001.86 -43.8596 1049.34 14.5001 1049.34C31.9971 1049.36 49.2229 1045.02 64.6184 1036.7C65.7302 1037.19 66.943 1037.4 68.1528 1037.31C69.3627 1037.22 70.5336 1036.85 71.5653 1036.21C72.597 1035.57 73.4587 1034.69 74.0766 1033.65C74.6946 1032.6 75.0503 1031.43 75.1134 1030.21C87.7196 1021.42 98.2558 1009.98 105.987 996.696C113.719 983.412 118.46 968.6 119.88 953.295C121.3 937.99 119.364 922.559 114.209 908.079C109.053 893.598 100.801 880.417 90.0274 869.453C90.4335 868.521 90.644 867.516 90.6461 866.5ZM73.832 1025.58C72.7524 1023.97 71.0874 1022.83 69.1878 1022.42C67.2881 1022 65.302 1022.34 63.6478 1023.36C61.9935 1024.39 60.8001 1026.01 60.319 1027.89C59.8379 1029.78 60.1066 1031.77 61.0685 1033.46C46.6855 1040.94 30.7105 1044.84 14.5001 1044.82C-41.3776 1044.82 -86.8413 999.356 -86.8413 943.478C-86.8413 887.6 -41.3776 842.144 14.5001 842.144C36.8968 842.118 58.6642 849.553 76.3655 863.274C75.8832 864.273 75.6315 865.368 75.629 866.478C75.629 868.47 76.4205 870.381 77.8293 871.79C79.2381 873.198 81.1488 873.99 83.1412 873.99C84.5409 873.991 85.9122 873.595 87.0962 872.848C97.2539 883.267 105.046 895.753 109.94 909.456C114.835 923.159 116.717 937.756 115.459 952.252C114.201 966.749 109.831 980.803 102.649 993.458C95.4667 1006.11 85.6402 1017.07 73.8393 1025.58H73.832Z" fill="#ECF7FC"/>
<path d="M307.44 1038.08C328.415 972.889 327.079 902.568 303.641 838.22C280.203 773.873 235.999 719.166 178.009 682.737C178.845 681.044 179.011 679.097 178.475 677.286C177.939 675.475 176.74 673.932 175.117 672.966C173.493 672 171.566 671.682 169.718 672.075C167.871 672.468 166.239 673.543 165.149 675.085C106.636 642.197 38.9682 629.36 -27.524 638.536C-94.0163 647.712 -155.679 678.396 -203.097 725.903C-204.069 726.875 -205.012 727.862 -205.969 728.849C-207.078 728.234 -208.325 727.912 -209.593 727.914C-211.579 727.918 -213.483 728.708 -214.888 730.111C-216.293 731.515 -217.085 733.418 -217.09 735.404C-217.089 736.859 -216.664 738.281 -215.868 739.499C-267.904 798.149 -295.565 874.466 -293.191 952.837C-290.817 1031.21 -258.588 1105.71 -203.097 1161.1C-195.796 1168.41 -188.186 1175.31 -180.266 1181.79C-181.183 1183.36 -181.5 1185.21 -181.157 1187C-180.814 1188.78 -179.835 1190.38 -178.401 1191.5C-176.968 1192.62 -175.177 1193.18 -173.362 1193.07C-171.548 1192.97 -169.832 1192.21 -168.533 1190.94C-131.081 1218.6 -87.8442 1237.42 -42.0737 1245.96C3.69681 1254.51 50.8091 1252.56 95.7202 1240.28C140.631 1227.99 182.172 1205.68 217.218 1175.02C252.264 1144.37 279.903 1106.17 298.057 1063.29C299.618 1059.6 301.091 1055.89 302.476 1052.15C303.022 1052.28 303.58 1052.34 304.14 1052.35C305.841 1052.35 307.491 1051.77 308.821 1050.71C310.151 1049.65 311.082 1048.17 311.461 1046.51C311.84 1044.86 311.645 1043.12 310.908 1041.59C310.171 1040.05 308.935 1038.82 307.403 1038.08H307.44ZM14.4998 1248.38C-50.8287 1248.44 -114.432 1227.41 -166.847 1188.42C-166.24 1186.91 -166.142 1185.24 -166.568 1183.67C-166.994 1182.09 -167.921 1180.7 -169.209 1179.7C-170.497 1178.7 -172.075 1178.15 -173.705 1178.13C-175.334 1178.11 -176.927 1178.62 -178.24 1179.58C-246.639 1123.61 -290.379 1038.59 -290.379 943.529C-290.438 869.132 -263.182 797.302 -213.784 741.671C-212.544 742.503 -211.085 742.947 -209.593 742.946C-207.602 742.944 -205.693 742.151 -204.286 740.743C-202.879 739.334 -202.088 737.424 -202.088 735.433C-202.088 733.755 -202.653 732.125 -203.694 730.808C-148.287 673.958 -70.9408 638.629 14.4998 638.629C66.8878 638.559 118.399 652.072 164.008 677.847C163.905 678.331 163.853 678.825 163.853 679.32C163.852 680.748 164.259 682.147 165.026 683.352C165.792 684.557 166.886 685.518 168.18 686.123C169.474 686.728 170.913 686.951 172.329 686.766C173.745 686.581 175.079 685.996 176.175 685.079C262.146 739.05 319.415 834.705 319.415 943.485C319.44 975.351 314.452 1007.02 304.634 1037.34C304.494 1037.34 304.361 1037.34 304.214 1037.34C302.623 1037.34 301.073 1037.84 299.789 1038.78C298.504 1039.72 297.551 1041.04 297.066 1042.56C296.582 1044.07 296.592 1045.7 297.094 1047.21C297.596 1048.72 298.565 1050.03 299.861 1050.95C256.283 1166.2 144.807 1248.38 14.4998 1248.38Z" fill="#ECF7FC"/>
</g>
<g clip-path="url(#clip2_67_1692)">
<path d="M2021.5 433.284C1940.89 433.284 1875.28 498.891 1875.28 579.5C1875.28 660.109 1940.89 725.731 2021.5 725.731C2102.11 725.731 2167.73 660.124 2167.73 579.5C2167.73 498.876 2102.12 433.284 2021.5 433.284ZM2021.5 721.547C1943.17 721.547 1879.45 657.826 1879.45 579.5C1879.45 501.174 1943.17 437.453 2021.5 437.453C2099.83 437.453 2163.55 501.174 2163.55 579.5C2163.55 657.826 2099.83 721.547 2021.5 721.547Z" fill="#ECF7FC"/>
<path d="M2021.5 392.902C2006.69 392.884 1991.94 394.615 1977.54 398.057C1976.99 396.353 1975.85 394.902 1974.33 393.964C1972.8 393.026 1970.99 392.664 1969.22 392.943C1967.46 393.222 1965.85 394.124 1964.68 395.486C1963.52 396.848 1962.89 398.58 1962.89 400.37C1962.89 400.966 1962.97 401.559 1963.11 402.137C1918.38 416.768 1880.81 447.714 1857.88 488.809C1834.95 529.904 1828.35 578.13 1839.39 623.876C1850.43 669.621 1878.3 709.527 1917.45 735.641C1956.6 761.754 2004.15 772.157 2050.63 764.776C2097.11 757.395 2139.1 732.773 2168.23 695.816C2197.36 658.86 2211.5 612.282 2207.83 565.367C2204.15 518.452 2182.93 474.644 2148.4 442.674C2113.87 410.704 2068.56 392.919 2021.5 392.865V392.902ZM2021.5 762.253C1920.73 762.253 1838.75 680.274 1838.75 579.5C1838.75 498.419 1891.83 429.52 1965.06 405.687C1966 406.648 1967.19 407.336 1968.49 407.679C1969.79 408.022 1971.17 408.007 1972.46 407.636C1973.76 407.265 1974.93 406.552 1975.85 405.571C1976.78 404.591 1977.42 403.379 1977.72 402.064C1992.04 398.529 2006.74 396.744 2021.5 396.746C2122.27 396.746 2204.25 478.733 2204.25 579.5C2204.25 680.267 2122.27 762.253 2021.5 762.253Z" fill="#ECF7FC"/>
<path d="M2021.5 352.521C1961.3 352.522 1903.57 376.437 1861 419.003C1818.44 461.57 1794.52 519.302 1794.52 579.5C1794.52 581.391 1794.54 583.281 1794.59 585.171C1793.2 585.736 1792.02 586.699 1791.19 587.939C1790.36 589.178 1789.91 590.638 1789.91 592.131C1789.91 593.771 1790.45 595.365 1791.44 596.67C1792.44 597.975 1793.83 598.918 1795.41 599.356C1800.38 655.898 1826.35 708.526 1868.2 746.866C1910.06 785.206 1964.76 806.475 2021.51 806.48C2023.27 806.48 2025.03 806.458 2026.79 806.414C2027.3 807.992 2028.31 809.357 2029.68 810.295C2031.05 811.234 2032.69 811.694 2034.34 811.603C2036 811.513 2037.58 810.876 2038.83 809.793C2040.09 808.711 2040.95 807.242 2041.28 805.618C2099.55 800.527 2153.6 773.141 2192.17 729.17C2230.73 685.199 2250.84 628.039 2248.29 569.607C2245.74 511.175 2220.73 455.983 2178.48 415.538C2136.23 375.093 2080 352.518 2021.51 352.521H2021.5ZM2041.14 802.091C2040.69 800.442 2039.68 799 2038.29 798.003C2036.9 797.006 2035.21 796.513 2033.5 796.608C2031.8 796.703 2030.17 797.378 2028.9 798.523C2027.63 799.667 2026.79 801.212 2026.52 802.901C2024.84 802.901 2023.18 802.96 2021.5 802.96C1905.02 802.96 1809.08 713.372 1798.94 599.474C1800.63 599.121 1802.15 598.196 1803.23 596.854C1804.32 595.512 1804.91 593.836 1804.9 592.109C1804.91 590.24 1804.21 588.438 1802.95 587.056C1801.7 585.673 1799.97 584.81 1798.11 584.634C1798.06 582.925 1798.04 581.202 1798.04 579.478C1798.01 456.285 1898.28 356.011 2021.5 356.011C2144.72 356.011 2244.96 456.256 2244.96 579.471C2244.96 696.102 2155.21 792.111 2041.14 802.091Z" fill="#ECF7FC"/>
<path d="M2264.06 466.928C2265.74 465.986 2267 464.433 2267.57 462.59C2268.14 460.747 2267.97 458.755 2267.11 457.029C2266.25 455.303 2264.76 453.974 2262.95 453.318C2261.13 452.663 2259.13 452.731 2257.37 453.509C2233.55 409.002 2197.61 372.145 2153.73 347.195C2109.84 322.246 2059.79 310.223 2009.37 312.516C1958.94 314.809 1910.18 331.325 1868.74 360.154C1827.3 388.983 1794.87 428.949 1775.18 475.434C1757.98 516.087 1751.12 560.367 1755.21 604.319C1759.29 648.27 1774.2 690.526 1798.6 727.312C1823 764.097 1856.12 794.268 1895.03 815.129C1933.93 835.99 1977.39 846.892 2021.53 846.862C2065.65 846.834 2109.08 835.895 2147.94 815.017C2186.81 794.14 2219.91 763.973 2244.3 727.204C2268.68 690.435 2283.59 648.206 2287.7 604.278C2291.81 560.35 2284.99 516.088 2267.85 475.434C2266.63 472.569 2265.36 469.741 2264.06 466.928ZM2021.5 843.666C1875.84 843.666 1757.33 725.164 1757.33 579.5C1757.33 433.837 1875.84 315.335 2021.5 315.335C2122.4 315.335 2210.23 372.17 2254.71 455.505C2253.78 456.597 2253.19 457.931 2253 459.349C2252.81 460.768 2253.02 462.212 2253.62 463.511C2254.23 464.811 2255.19 465.911 2256.39 466.682C2257.6 467.453 2259 467.863 2260.43 467.863C2260.59 467.863 2260.74 467.863 2260.89 467.863C2277.25 502.81 2285.71 540.934 2285.67 579.523C2285.67 725.164 2167.16 843.666 2021.5 843.666Z" fill="#ECF7FC"/>
<path d="M2342.28 444C2320.11 391.418 2285.34 345.096 2241.05 309.114C2196.76 273.131 2144.29 248.594 2088.29 237.661C2032.28 226.729 1974.44 229.738 1919.87 246.423C1865.29 263.109 1815.66 292.958 1775.34 333.342C1718.29 390.462 1682.85 465.634 1675.1 545.995C1667.35 626.357 1687.76 706.915 1732.85 773.887C1777.94 840.859 1844.89 890.084 1922.26 913.14C1999.64 936.196 2082.62 931.65 2157.01 900.28C2167.07 896.023 2176.89 891.321 2186.47 886.176C2187.56 887.643 2189.15 888.661 2190.95 889.036C2192.74 889.411 2194.6 889.119 2196.19 888.214C2197.79 887.309 2198.99 885.854 2199.58 884.122C2200.18 882.39 2200.12 880.501 2199.41 878.811C2263.23 840.762 2313.27 783.385 2342.29 714.993C2360.35 672.095 2369.65 626.021 2369.65 579.478C2369.65 532.935 2360.35 486.861 2342.29 443.963L2342.28 444ZM2197.93 876.557C2196.78 875.309 2195.24 874.486 2193.57 874.224C2191.89 873.961 2190.18 874.274 2188.7 875.112C2187.23 875.949 2186.08 877.262 2185.45 878.835C2184.82 880.409 2184.74 882.15 2185.22 883.775C2134.93 910.955 2078.66 925.154 2021.49 925.085C1830.94 925.085 1675.91 770.053 1675.91 579.5C1675.91 388.947 1830.95 233.916 2021.5 233.916C2212.05 233.916 2367.08 388.947 2367.08 579.5C2367.08 705.647 2299.14 816.216 2197.93 876.557Z" fill="#ECF7FC"/>
<path d="M2379.47 428.276C2356.12 373.044 2320.31 323.961 2274.85 284.865C2229.38 245.768 2175.48 217.719 2117.38 202.909C2117.38 202.659 2117.41 202.408 2117.41 202.173C2117.42 200.412 2116.8 198.706 2115.67 197.354C2114.54 196.002 2112.98 195.089 2111.24 194.776C2109.51 194.463 2107.72 194.768 2106.19 195.64C2104.66 196.511 2103.49 197.893 2102.88 199.543C2076.12 193.862 2048.85 191.011 2021.5 191.037C1961.83 191.093 1902.98 204.879 1849.49 231.328C1796.01 257.777 1749.32 296.179 1713.06 343.562C1676.8 390.945 1651.92 446.038 1640.36 504.575C1628.8 563.113 1630.87 623.525 1646.4 681.136C1644.81 681.561 1643.39 682.502 1642.39 683.812C1641.38 685.123 1640.83 686.73 1640.83 688.383C1640.83 690.374 1641.62 692.282 1643.03 693.69C1644.43 695.097 1646.34 695.888 1648.33 695.888C1649.1 695.887 1649.87 695.771 1650.6 695.542C1654.33 707.434 1658.64 719.173 1663.53 730.761C1688.27 789.439 1727.07 841.131 1776.5 881.284C1825.93 921.438 1884.48 948.82 1946.98 961.019C2009.48 973.219 2074.03 969.861 2134.93 951.242C2195.83 932.623 2251.22 899.314 2296.21 854.249C2350.84 799.559 2387.93 729.832 2402.76 653.968C2417.58 578.103 2409.46 499.542 2379.44 428.313L2379.47 428.276ZM2021.5 965.827C1848.52 965.827 1701.73 851.538 1652.68 694.503C1653.66 693.811 1654.46 692.893 1655.01 691.829C1655.56 690.764 1655.85 689.582 1655.85 688.383C1655.84 686.456 1655.1 684.604 1653.77 683.209C1652.44 681.815 1650.63 680.986 1648.7 680.893C1639.73 647.843 1635.21 613.745 1635.25 579.5C1635.25 366.499 1808.5 193.246 2021.5 193.246C2048.7 193.234 2075.82 196.095 2102.42 201.782C2102.42 201.915 2102.42 202.047 2102.42 202.18C2102.43 203.904 2103.03 205.573 2104.12 206.906C2105.22 208.239 2106.74 209.155 2108.43 209.501C2110.11 209.846 2111.87 209.6 2113.4 208.803C2114.93 208.007 2116.14 206.708 2116.82 205.126C2283.87 247.658 2407.83 399.376 2407.83 579.5C2407.83 792.501 2234.5 965.827 2021.5 965.827Z" fill="#ECF7FC"/>
<path d="M2097.65 502.5C2097.65 501.186 2097.3 499.895 2096.65 498.756C2095.99 497.616 2095.05 496.669 2093.92 496.009C2092.78 495.349 2091.49 494.999 2090.18 494.994C2088.86 494.989 2087.57 495.33 2086.43 495.982C2067.89 481.499 2045.03 473.643 2021.5 473.666C1963.14 473.666 1915.66 521.14 1915.66 579.5C1915.66 637.86 1963.14 685.342 2021.5 685.342C2039 685.361 2056.22 681.017 2071.62 672.703C2072.73 673.188 2073.94 673.396 2075.15 673.31C2076.36 673.224 2077.53 672.845 2078.57 672.208C2079.6 671.57 2080.46 670.691 2081.08 669.648C2081.69 668.604 2082.05 667.426 2082.11 666.215C2094.72 657.42 2105.26 645.981 2112.99 632.696C2120.72 619.412 2125.46 604.6 2126.88 589.295C2128.3 573.99 2126.36 558.559 2121.21 544.079C2116.05 529.598 2107.8 516.417 2097.03 505.453C2097.43 504.521 2097.64 503.516 2097.65 502.5ZM2080.83 661.582C2079.75 659.965 2078.09 658.831 2076.19 658.417C2074.29 658.003 2072.3 658.342 2070.65 659.364C2068.99 660.385 2067.8 662.009 2067.32 663.893C2066.84 665.776 2067.11 667.773 2068.07 669.463C2053.69 676.94 2037.71 680.836 2021.5 680.819C1965.62 680.819 1920.16 635.356 1920.16 579.478C1920.16 523.6 1965.62 478.144 2021.5 478.144C2043.9 478.118 2065.66 485.553 2083.37 499.274C2082.88 500.273 2082.63 501.368 2082.63 502.478C2082.63 504.47 2083.42 506.381 2084.83 507.79C2086.24 509.198 2088.15 509.99 2090.14 509.99C2091.54 509.991 2092.91 509.595 2094.1 508.848C2104.25 519.267 2112.05 531.753 2116.94 545.456C2121.83 559.159 2123.72 573.756 2122.46 588.252C2121.2 602.749 2116.83 616.803 2109.65 629.458C2102.47 642.112 2092.64 653.07 2080.84 661.582H2080.83Z" fill="#ECF7FC"/>
<path d="M2314.44 674.08C2335.42 608.889 2334.08 538.568 2310.64 474.22C2287.2 409.873 2243 355.166 2185.01 318.737C2185.84 317.044 2186.01 315.097 2185.48 313.286C2184.94 311.475 2183.74 309.932 2182.12 308.966C2180.49 308 2178.57 307.682 2176.72 308.075C2174.87 308.468 2173.24 309.543 2172.15 311.085C2113.64 278.197 2045.97 265.36 1979.48 274.536C1912.98 283.712 1851.32 314.396 1803.9 361.903C1802.93 362.875 1801.99 363.862 1801.03 364.849C1799.92 364.234 1798.68 363.912 1797.41 363.914C1795.42 363.918 1793.52 364.708 1792.11 366.111C1790.71 367.515 1789.92 369.418 1789.91 371.404C1789.91 372.859 1790.34 374.281 1791.13 375.499C1739.1 434.149 1711.44 510.466 1713.81 588.837C1716.18 667.208 1748.41 741.711 1803.9 797.104C1811.2 804.41 1818.81 811.306 1826.73 817.792C1825.82 819.362 1825.5 821.21 1825.84 822.996C1826.19 824.781 1827.17 826.381 1828.6 827.499C1830.03 828.616 1831.82 829.176 1833.64 829.073C1835.45 828.97 1837.17 828.212 1838.47 826.94C1875.92 854.604 1919.16 873.416 1964.93 881.961C2010.7 890.507 2057.81 888.563 2102.72 876.276C2147.63 863.99 2189.17 841.68 2224.22 811.025C2259.26 780.37 2286.9 742.167 2305.06 699.29C2306.62 695.603 2308.09 691.891 2309.48 688.155C2310.02 688.279 2310.58 688.343 2311.14 688.346C2312.84 688.347 2314.49 687.771 2315.82 686.712C2317.15 685.652 2318.08 684.172 2318.46 682.515C2318.84 680.857 2318.65 679.12 2317.91 677.587C2317.17 676.055 2315.94 674.818 2314.4 674.08H2314.44ZM2021.5 884.379C1956.17 884.443 1892.57 863.414 1840.15 824.421C1840.76 822.908 1840.86 821.239 1840.43 819.666C1840.01 818.093 1839.08 816.702 1837.79 815.703C1836.5 814.704 1834.93 814.152 1833.3 814.13C1831.67 814.109 1830.07 814.619 1828.76 815.583C1760.36 759.609 1716.62 674.589 1716.62 579.529C1716.56 505.132 1743.82 433.302 1793.22 377.671C1794.46 378.503 1795.91 378.947 1797.41 378.946C1799.4 378.944 1801.31 378.151 1802.71 376.743C1804.12 375.334 1804.91 373.424 1804.91 371.433C1804.91 369.755 1804.35 368.125 1803.31 366.808C1858.71 309.958 1936.06 274.629 2021.5 274.629C2073.89 274.559 2125.4 288.072 2171.01 313.847C2170.91 314.331 2170.85 314.825 2170.85 315.32C2170.85 316.748 2171.26 318.147 2172.03 319.352C2172.79 320.557 2173.89 321.518 2175.18 322.123C2176.47 322.728 2177.91 322.951 2179.33 322.766C2180.75 322.581 2182.08 321.996 2183.17 321.079C2269.15 375.05 2326.42 470.705 2326.42 579.485C2326.44 611.351 2321.45 643.021 2311.63 673.337C2311.49 673.337 2311.36 673.337 2311.21 673.337C2309.62 673.337 2308.07 673.842 2306.79 674.781C2305.5 675.719 2304.55 677.041 2304.07 678.557C2303.58 680.072 2303.59 681.702 2304.09 683.211C2304.6 684.721 2305.57 686.031 2306.86 686.954C2263.28 802.201 2151.81 884.379 2021.5 884.379Z" fill="#ECF7FC"/>
</g>
</g>
<defs>
<clipPath id="clip0_67_1692">
<rect width="1920" height="1080" fill="white"/>
</clipPath>
<clipPath id="clip1_67_1692">
<rect width="777" height="777" fill="white" transform="translate(-374 555)"/>
</clipPath>
<clipPath id="clip2_67_1692">
<rect width="777" height="777" fill="white" transform="translate(1633 191)"/>
</clipPath>
</defs>
</svg>
