<svg width="30" height="30" viewBox="0 0 30 30" fill="none" xmlns="http://www.w3.org/2000/svg">
<path fill-rule="evenodd" clip-rule="evenodd" d="M29.4 14.9996C29.4 18.8187 27.8828 22.4814 25.1823 25.1819C22.4818 27.8825 18.8191 29.3996 15 29.3996C11.1809 29.3996 7.51816 27.8825 4.81764 25.1819C2.11711 22.4814 0.599976 18.8187 0.599976 14.9996C0.599976 11.1805 2.11711 7.5178 4.81764 4.81727C7.51816 2.11675 11.1809 0.599609 15 0.599609C18.8191 0.599609 22.4818 2.11675 25.1823 4.81727C27.8828 7.5178 29.4 11.1805 29.4 14.9996V14.9996ZM18.6 9.59961C18.6 10.5544 18.2207 11.4701 17.5456 12.1452C16.8704 12.8203 15.9548 13.1996 15 13.1996C14.0452 13.1996 13.1295 12.8203 12.4544 12.1452C11.7793 11.4701 11.4 10.5544 11.4 9.59961C11.4 8.64483 11.7793 7.72916 12.4544 7.05403C13.1295 6.37889 14.0452 5.99961 15 5.99961C15.9548 5.99961 16.8704 6.37889 17.5456 7.05403C18.2207 7.72916 18.6 8.64483 18.6 9.59961V9.59961ZM15 16.7996C13.2767 16.7993 11.5895 17.2937 10.1389 18.2241C8.68837 19.1546 7.53545 20.4819 6.81718 22.0484C7.82999 23.2267 9.08566 24.172 10.4981 24.8195C11.9105 25.467 13.4462 25.8013 15 25.7996C16.5537 25.8013 18.0895 25.467 19.5019 24.8195C20.9143 24.172 22.17 23.2267 23.1828 22.0484C22.4645 20.4819 21.3116 19.1546 19.861 18.2241C18.4105 17.2937 16.7233 16.7993 15 16.7996V16.7996Z" fill="white"/>
</svg>
