<svg width="24" height="24" viewBox="0 0 24 24" fill="none" xmlns="http://www.w3.org/2000/svg">
<path fill-rule="evenodd" clip-rule="evenodd" d="M3.59961 20.3999C3.59961 20.0816 3.72604 19.7764 3.95108 19.5514C4.17612 19.3263 4.48135 19.1999 4.79961 19.1999H19.1996C19.5179 19.1999 19.8231 19.3263 20.0481 19.5514C20.2732 19.7764 20.3996 20.0816 20.3996 20.3999C20.3996 20.7182 20.2732 21.0234 20.0481 21.2484C19.8231 21.4735 19.5179 21.5999 19.1996 21.5999H4.79961C4.48135 21.5999 4.17612 21.4735 3.95108 21.2484C3.72604 21.0234 3.59961 20.7182 3.59961 20.3999ZM7.55121 11.1515C7.77624 10.9265 8.08141 10.8002 8.39961 10.8002C8.71781 10.8002 9.02298 10.9265 9.24801 11.1515L10.7996 12.7031V3.5999C10.7996 3.28164 10.926 2.97642 11.1511 2.75137C11.3761 2.52633 11.6813 2.3999 11.9996 2.3999C12.3179 2.3999 12.6231 2.52633 12.8481 2.75137C13.0732 2.97642 13.1996 3.28164 13.1996 3.5999V12.7031L14.7512 11.1515C14.8619 11.0369 14.9943 10.9455 15.1407 10.8826C15.2871 10.8197 15.4446 10.7866 15.6039 10.7852C15.7633 10.7838 15.9213 10.8142 16.0688 10.8745C16.2162 10.9349 16.3502 11.024 16.4629 11.1366C16.5756 11.2493 16.6647 11.3833 16.725 11.5308C16.7853 11.6782 16.8157 11.8362 16.8143 11.9956C16.8129 12.1549 16.7798 12.3124 16.7169 12.4588C16.654 12.6052 16.5626 12.7376 16.448 12.8483L12.848 16.4483C12.623 16.6733 12.3178 16.7996 11.9996 16.7996C11.6814 16.7996 11.3762 16.6733 11.1512 16.4483L7.55121 12.8483C7.32624 12.6233 7.19987 12.3181 7.19987 11.9999C7.19987 11.6817 7.32624 11.3765 7.55121 11.1515Z" fill="white"/>
</svg>
