<svg width="24" height="24" viewBox="0 0 24 24" fill="none" xmlns="http://www.w3.org/2000/svg">
<path d="M7 8L3 12M3 12L7 16M3 12H17M11 8V7C11 6.20435 11.3161 5.44129 11.8787 4.87868C12.4413 4.31607 13.2044 4 14 4H18C18.7956 4 19.5587 4.31607 20.1213 4.87868C20.6839 5.44129 21 6.20435 21 7V17C21 17.7956 20.6839 18.5587 20.1213 19.1213C19.5587 19.6839 18.7956 20 18 20H14C13.2044 20 12.4413 19.6839 11.8787 19.1213C11.3161 18.5587 11 17.7956 11 17V16" stroke="white" stroke-width="2" stroke-linecap="round" stroke-linejoin="round"/>
</svg>
