<svg width="24" height="24" viewBox="0 0 24 24" fill="none" xmlns="http://www.w3.org/2000/svg">
<path d="M6.39241 4.95892C7.71833 3.90301 9.31546 3.24294 11 3.05469V12.9997H20.945C20.7567 14.6842 20.0966 16.2813 19.0407 17.6072C17.9848 18.9332 16.576 19.934 14.9763 20.4945C13.3767 21.0551 11.6513 21.1526 9.99874 20.7758C8.34615 20.399 6.83354 19.5632 5.63499 18.3647C4.43644 17.1661 3.60068 15.6535 3.22388 14.0009C2.84708 12.3483 2.94456 10.6229 3.50511 9.02331C4.06566 7.42368 5.06649 6.01484 6.39241 4.95892Z" stroke="#5E85A9" stroke-width="2" stroke-linecap="round" stroke-linejoin="round"/>
<path d="M15 8.99972H20.488C20.0391 7.73433 19.3135 6.58506 18.3641 5.63566C17.4147 4.68625 16.2654 3.96065 15 3.51172V8.99972Z" stroke="#5E85A9" stroke-width="2" stroke-linecap="round" stroke-linejoin="round"/>
</svg>
