<svg width="27" height="27" viewBox="0 0 27 27" fill="none" xmlns="http://www.w3.org/2000/svg">
<circle cx="13.5" cy="13.5" r="13.5" fill="white"/>
<path fill-rule="evenodd" clip-rule="evenodd" d="M24.3657 13.4996C24.3657 16.3814 23.2209 19.1452 21.1832 21.183C19.1455 23.2207 16.3817 24.3655 13.4999 24.3655C10.6181 24.3655 7.85431 23.2207 5.81657 21.183C3.77883 19.1452 2.63403 16.3814 2.63403 13.4996C2.63403 10.6178 3.77883 7.85407 5.81657 5.81632C7.85431 3.77858 10.6181 2.63379 13.4999 2.63379C16.3817 2.63379 19.1455 3.77858 21.1832 5.81632C23.2209 7.85407 24.3657 10.6178 24.3657 13.4996V13.4996ZM16.2163 9.42495C16.2163 10.1454 15.9302 10.8363 15.4207 11.3458C14.9113 11.8552 14.2203 12.1414 13.4999 12.1414C12.7794 12.1414 12.0885 11.8552 11.5791 11.3458C11.0696 10.8363 10.7834 10.1454 10.7834 9.42495C10.7834 8.7045 11.0696 8.01355 11.5791 7.50412C12.0885 6.99468 12.7794 6.70848 13.4999 6.70848C14.2203 6.70848 14.9113 6.99468 15.4207 7.50412C15.9302 8.01355 16.2163 8.7045 16.2163 9.42495V9.42495ZM13.4999 14.8579C12.1995 14.8576 10.9264 15.2307 9.83187 15.9328C8.73732 16.6349 7.86736 17.6364 7.32537 18.8185C8.08961 19.7076 9.03711 20.4209 10.1029 20.9094C11.1686 21.398 12.3275 21.6503 13.4999 21.649C14.6723 21.6503 15.8311 21.398 16.8969 20.9094C17.9627 20.4209 18.9102 19.7076 19.6744 18.8185C19.1324 17.6364 18.2625 16.6349 17.1679 15.9328C16.0734 15.2307 14.8003 14.8576 13.4999 14.8579V14.8579Z" fill="#22C55E"/>
</svg>
